<svg xmlns="http://www.w3.org/2000/svg" viewBox="0 0 24 24" fill="currentColor" class="h-6 w-6">
  <path d="M12 0C5.37 0 0 5.37 0 12c0 5.31 3.438 9.8 8.205 11.387.6.11.82-.26.82-.577v-2.16c-3.338.724-4.033-1.415-4.033-1.415-.546-1.387-1.333-1.757-1.333-1.757-1.09-.745.082-.73.082-.73 1.204.084 1.838 1.236 1.838 1.236 1.07 1.835 2.805 1.305 3.492.997.11-.775.42-1.305.762-1.605-2.665-.304-5.466-1.333-5.466-5.93 0-1.31.467-2.383 1.236-3.224-.124-.303-.536-1.523.117-3.176 0 0 1.008-.323 3.3 1.23a11.4 11.4 0 013.003-.403 11.42 11.42 0 013.003.403c2.29-1.554 3.297-1.23 3.297-1.23.655 1.653.244 2.873.12 3.176.77.841 1.236 1.914 1.236 3.224 0 4.61-2.807 5.624-5.48 5.92.43.37.812 1.102.812 2.22v3.293c0 .32.218.694.825.577C20.565 21.796 24 17.31 24 12 24 5.37 18.63 0 12 0z"/>
</svg>
